# xmcd CD database file
#
# Track frame offsets:
#	150
#	14811
#	28252
#	35949
#	54221
#	73260
#	88559
#	102599
#	116823
#	129743
#	141715
#	156992
#	175340
#	196460
#	207827
#	227380
#	240634
#
# Disc length: 3361 seconds
#
# Revision: 0
# Processed by: cddbd v1.5.2PL0 Copyright (c) Steve Scherf et al.
# Submitted via: CDex 1.51
#
DISCID=070d1f11
DTITLE=Dave Peabody and Regina Mudrich - Some of These Days
DYEAR=2018
DGENRE=Blues
TTITLE0=She Caught The Train
TTITLE1=Nobody Knows You When You're Down And Out
TTITLE2=Eveybody Loves My Baby
TTITLE3=Picture The Blues
TTITLE4=Delta Bound
TTITLE5=Little Wheel
TTITLE6=Please Don't Tell Me You Love Me
TTITLE7=Standing On The Highway
TTITLE8=The Jazz Fiddler
TTITLE9=Don't Blame Shorty For That
TTITLE10=Fan It
TTITLE11=Careless Love
TTITLE12=After You've Gone
TTITLE13=That's It!
TTITLE14=Cold Iron Bed
TTITLE15=Going To Germany
TTITLE16=Some Of These Days
EXTD=YEAR: 2018
EXTT0=
EXTT1=
EXTT2=
EXTT3=
EXTT4=
EXTT5=
EXTT6=
EXTT7=
EXTT8=
EXTT9=
EXTT10=
EXTT11=
EXTT12=
EXTT13=
EXTT14=
EXTT15=
EXTT16=
PLAYORDER=
